<?xml version="1.0" encoding="utf-8"?>
<!-- Generator: Adobe Illustrator 24.1.1, SVG Export Plug-In . SVG Version: 6.00 Build 0)  -->
<svg version="1.1" id="Capa_1" xmlns="http://www.w3.org/2000/svg" xmlns:xlink="http://www.w3.org/1999/xlink" x="0px" y="0px"
	 viewBox="0 0 188.7 105.6" style="enable-background:new 0 0 188.7 105.6;" xml:space="preserve">
<style type="text/css">
	.seg0{fill-opacity:0;stroke:#FFFFFF;stroke-width:17;}
	.seg1{fill:#FFFFFF;}
</style>
<g>
	<g transform="matrix(1,0,0,1,37.75,-13)">
		<g transform="matrix(1,0,0,1,137.41799926757812,120.1719970703125)">
			<path class="seg0" d="M5-5.4c0-0.3,0-0.5,0-0.8c0-29.3-20.7-53.1-46.1-53.1c0,0-65.7,0-114.3,0"/>
		</g>
	</g>
	<g transform="matrix(1,0,0,1,38.013999938964844,-13.326995849609375)">
		<g transform="matrix(1,0,0,1,112.89800262451172,67.07599639892578)">
			<path class="seg1" d="M-96.9-37.9l-11.6-12l-42.4,44l42.4,44l11.6-12l-30.8-32L-96.9-37.9z"/>
		</g>
	</g>
</g>
</svg>
